<svg width="100" height="100" viewBox="0 0 100 100" fill="none" xmlns="http://www.w3.org/2000/svg">
<path fill-rule="evenodd" clip-rule="evenodd" d="M30.0127 49.518C30.0127 60.0155 38.5227 68.5255 49.0202 68.5255C59.5177 68.5255 68.0277 60.0155 68.0277 49.518C68.0277 39.0205 59.5177 30.5105 49.0202 30.5105C38.5227 30.5105 30.0127 39.0205 30.0127 49.518Z" fill="#FF9933"/>
<path fill-rule="evenodd" clip-rule="evenodd" d="M83.1487 46.4908H76.2062C74.5787 46.4908 73.2487 47.8208 73.2487 49.4483V49.5883C73.2487 51.2158 74.5787 52.5458 76.2062 52.5458H83.1487C84.7762 52.5458 86.1062 51.2158 86.1062 49.5883V49.4483C86.1062 47.8208 84.7762 46.4908 83.1487 46.4908" fill="#FF9933"/>
<path fill-rule="evenodd" clip-rule="evenodd" d="M24.7895 49.5875V49.4475C24.7895 47.82 23.4595 46.49 21.832 46.49H14.8895C13.262 46.49 11.9295 47.82 11.9295 49.4475V49.5875C11.9295 51.215 13.262 52.545 14.8895 52.545H21.832C23.4595 52.545 24.7895 51.215 24.7895 49.5875" fill="#FF9933"/>
<path fill-rule="evenodd" clip-rule="evenodd" d="M67.624 17.433L67.504 17.363C66.094 16.5505 64.2765 17.0355 63.4615 18.4455L59.9915 24.4605C59.1765 25.868 59.664 27.688 61.0715 28.5005L61.194 28.5705C62.6015 29.383 64.4215 28.8955 65.234 27.4855L68.7065 21.473C69.519 20.0655 69.0315 18.2455 67.624 17.433" fill="#FF9933"/>
<path fill-rule="evenodd" clip-rule="evenodd" d="M36.9647 70.536L36.8447 70.466C35.4347 69.651 33.6172 70.1385 32.8047 71.5485L29.3322 77.561C28.5197 78.971 29.0047 80.7885 30.4147 81.601L30.5347 81.6735C31.9447 82.486 33.7622 81.9985 34.5747 80.5885L38.0472 74.576C38.8597 73.166 38.3747 71.3485 36.9647 70.536" fill="#FF9933"/>
<path fill-rule="evenodd" clip-rule="evenodd" d="M65.2338 71.548C64.4213 70.1405 62.6013 69.653 61.1938 70.4655L61.0713 70.5355C59.6638 71.348 59.1763 73.1655 59.9913 74.5755L63.4638 80.5905C64.2763 81.998 66.0938 82.4855 67.5038 81.673L67.6238 81.6005C69.0338 80.788 69.5188 78.9705 68.7063 77.5605L65.2338 71.548Z" fill="#FF9933"/>
<path fill-rule="evenodd" clip-rule="evenodd" d="M32.8045 27.4867C33.617 28.8967 35.4345 29.3817 36.8445 28.5692L36.9645 28.4992C38.3745 27.6867 38.8595 25.8692 38.047 24.4592L34.5745 18.4467C33.762 17.0367 31.9445 16.5492 30.5345 17.3642L30.4145 17.4342C29.0045 18.2467 28.5195 20.0642 29.332 21.4742L32.8045 27.4867Z" fill="#FF9933"/>
<path fill-rule="evenodd" clip-rule="evenodd" d="M26.988 33.3022L20.9755 29.8297C19.5655 29.0172 17.748 29.5047 16.9355 30.9122L16.8655 31.0347C16.0505 32.4422 16.538 34.2622 17.948 35.0747L23.9605 38.5472C25.3705 39.3597 27.188 38.8722 28.0005 37.4647L28.0705 37.3422C28.8855 35.9347 28.3955 34.1147 26.988 33.3022" fill="#FF9933"/>
<path fill-rule="evenodd" clip-rule="evenodd" d="M80.091 63.9613L74.076 60.4888C72.6685 59.6763 70.851 60.1613 70.0385 61.5713L69.9685 61.6913C69.1535 63.1013 69.641 64.9188 71.0485 65.7313L77.0635 69.2038C78.4735 70.0163 80.291 69.5313 81.1035 68.1238L81.1735 68.0013C81.986 66.5913 81.4985 64.7738 80.091 63.9613" fill="#FF9933"/>
<path fill-rule="evenodd" clip-rule="evenodd" d="M28.0013 61.5713C27.1863 60.1638 25.3713 59.6763 23.9613 60.4888L17.9488 63.9613C16.5388 64.7738 16.0513 66.5913 16.8638 68.0013L16.9363 68.1238C17.7488 69.5313 19.5663 70.0163 20.9738 69.2038L26.9888 65.7338C28.3963 64.9188 28.8863 63.1013 28.0713 61.6913L28.0013 61.5713Z" fill="#FF9933"/>
<path fill-rule="evenodd" clip-rule="evenodd" d="M70.0373 37.4635C70.8498 38.871 72.6698 39.3585 74.0773 38.546L80.0898 35.0735C81.4998 34.261 81.9873 32.4435 81.1748 31.0335L81.1023 30.9135C80.2898 29.5035 78.4723 29.0185 77.0648 29.831L71.0498 33.301C69.6398 34.116 69.1523 35.9335 69.9673 37.3435L70.0373 37.4635Z" fill="#FF9933"/>
<path fill-rule="evenodd" clip-rule="evenodd" d="M48.9494 25.2882H49.0894C50.7169 25.2882 52.047 23.9582 52.047 22.3307V15.3882C52.047 13.7607 50.7169 12.4282 49.0894 12.4282H48.9494C47.3219 12.4282 45.9919 13.7607 45.9919 15.3882V22.3307C45.9919 23.9582 47.3219 25.2882 48.9494 25.2882" fill="#FF9933"/>
<path fill-rule="evenodd" clip-rule="evenodd" d="M49.0888 73.7465H48.9488C47.3213 73.7465 45.9913 75.0765 45.9913 76.704V83.649C45.9913 85.274 47.3213 86.6065 48.9488 86.6065H49.0888C50.7163 86.6065 52.0463 85.274 52.0463 83.649V76.704C52.0463 75.0765 50.7163 73.7465 49.0888 73.7465" fill="#FF9933"/>
</svg>
