<svg width="100" height="100" viewBox="0 0 100 100" fill="none" xmlns="http://www.w3.org/2000/svg">
<path fill-rule="evenodd" clip-rule="evenodd" d="M78.335 66.6522C78.1163 66.2647 77.685 66.0522 77.2444 66.1085C76.0663 66.2647 74.8944 66.346 73.7694 66.346C59.4507 66.346 47.8007 54.696 47.8007 40.3804C47.8007 34.4241 49.8725 28.6085 53.6288 23.996C53.91 23.6491 53.9507 23.1679 53.7319 22.7804C53.5163 22.3929 53.0819 22.1804 52.6444 22.2366C38.7507 24.096 28.2694 36.0803 28.2694 50.1147C28.2694 65.6272 40.8944 78.2491 56.4038 78.2491C64.9038 78.2491 72.8569 74.4647 78.2288 67.8679C78.51 67.521 78.5507 67.0397 78.335 66.6522" fill="#FF9933"/>
</svg>
