<svg width="100" height="100" viewBox="0 0 100 100" fill="none" xmlns="http://www.w3.org/2000/svg">
<path fill-rule="evenodd" clip-rule="evenodd" d="M94.593 51.0707L90.033 49.9307C88.9655 49.6632 87.873 50.3182 87.6055 51.3882L87.5805 51.4782C87.313 52.5482 87.9705 53.6407 89.038 53.9082L93.598 55.0457C94.668 55.3132 95.7605 54.6582 96.0255 53.5907L96.0505 53.4982C96.3155 52.4307 95.6605 51.3382 94.593 51.0707Z" fill="#FF9933"/>
<path fill-rule="evenodd" clip-rule="evenodd" d="M89.167 29.4397L89.0995 29.3747C88.307 28.6072 87.0345 28.6297 86.267 29.4222L83.002 32.7997C82.2345 33.5922 82.257 34.8647 83.0495 35.6322L83.117 35.6972C83.907 36.4622 85.182 36.4422 85.947 35.6497L89.2145 32.2697C89.9795 31.4772 89.9595 30.2047 89.167 29.4397Z" fill="#FF9933"/>
<path fill-rule="evenodd" clip-rule="evenodd" d="M64.649 30.3247C64.9515 31.3847 66.0665 32.0022 67.124 31.6997L67.2165 31.6747C68.274 31.3697 68.894 30.2572 68.5915 29.1972L67.299 24.6797C66.994 23.6197 65.8815 23.0022 64.8215 23.3047L64.7315 23.3297C63.6715 23.6322 63.054 24.7472 63.3565 25.8047L64.649 30.3247Z" fill="#FF9933"/>
<path fill-rule="evenodd" clip-rule="evenodd" d="M59.875 33.1897L56.495 29.9222C55.705 29.1572 54.43 29.1772 53.665 29.9697L53.6 30.0372C52.835 30.8297 52.855 32.1022 53.6475 32.8697L57.0275 36.1372C57.8175 36.9022 59.0925 36.8797 59.8575 36.0897L59.925 36.0197C60.69 35.2272 60.6675 33.9547 59.875 33.1897Z" fill="#FF9933"/>
<path fill-rule="evenodd" clip-rule="evenodd" d="M89.715 62.0425L86.335 58.775C85.545 58.01 84.27 58.03 83.505 58.8225L83.44 58.89C82.675 59.6825 82.695 60.955 83.4875 61.7225L86.865 64.99C87.6575 65.755 88.9325 65.7325 89.6975 64.9425L89.765 64.8725C90.53 64.08 90.5075 62.8075 89.715 62.0425Z" fill="#FF9933"/>
<path fill-rule="evenodd" clip-rule="evenodd" d="M87.4639 42.9898C87.7664 44.0498 88.8789 44.6673 89.9389 44.3648L94.4564 43.0723C95.5164 42.7698 96.1364 41.6548 95.8339 40.5948L95.8064 40.5048C95.5039 39.4473 94.3914 38.8273 93.3314 39.1323L88.8114 40.4248C87.7539 40.7273 87.1339 41.8398 87.4364 42.8998L87.4639 42.9898Z" fill="#FF9933"/>
<path fill-rule="evenodd" clip-rule="evenodd" d="M75.6135 31.5322L75.706 31.5547C76.7735 31.8222 77.866 31.1672 78.1335 30.0972L79.2735 25.5397C79.541 24.4697 78.886 23.3772 77.816 23.1097L77.726 23.0872C76.656 22.8197 75.5635 23.4747 75.2985 24.5447L74.156 29.1047C73.891 30.1722 74.546 31.2647 75.6135 31.5322Z" fill="#FF9933"/>
<path fill-rule="evenodd" clip-rule="evenodd" d="M74.803 34.9733C68.3655 33.3633 61.853 36.9108 59.613 43.0008C59.7405 42.9983 59.863 42.9908 59.9905 42.9908C69.2055 42.9908 76.933 49.4683 78.868 58.1108C81.413 56.3958 83.3605 53.7858 84.163 50.5758C85.888 43.6808 81.6955 36.6958 74.803 34.9733Z" fill="#FF9933"/>
<path fill-rule="evenodd" clip-rule="evenodd" d="M59.9898 46.2635C58.5773 46.2635 57.2098 46.446 55.9048 46.7885C53.4598 39.856 46.8573 34.891 39.0923 34.891C29.5748 34.891 21.8023 42.346 21.2923 51.7335C20.7098 51.6585 20.1198 51.6035 19.5173 51.6035C12.1123 51.6035 6.10977 57.606 6.10977 65.011C6.10977 72.4135 12.1123 78.4185 19.5173 78.4185H59.9898C68.5148 78.4185 75.4698 71.781 76.0148 63.391C76.0373 63.0435 76.0673 62.6935 76.0673 62.341C76.0673 53.461 68.8673 46.2635 59.9898 46.2635Z" fill="#D0D2D3"/>
</svg>
