<svg width="100" height="100" viewBox="0 0 100 100" fill="none" xmlns="http://www.w3.org/2000/svg">
<path fill-rule="evenodd" clip-rule="evenodd" d="M62.536 42.1682C61.1885 42.1682 59.8835 42.3432 58.636 42.6682C56.3035 36.0532 50.001 31.3107 42.5885 31.3107C33.506 31.3107 26.086 38.4282 25.601 47.3882C25.0435 47.3157 24.481 47.2657 23.906 47.2657C16.8385 47.2657 11.1085 52.9932 11.1085 60.0607C11.1085 67.1282 16.8385 72.8582 23.906 72.8582H62.536C70.6735 72.8582 77.311 66.5207 77.831 58.5157C77.851 58.1832 77.881 57.8507 77.881 57.5132C77.881 49.0357 71.011 42.1682 62.536 42.1682" fill="#D0D2D3"/>
<path fill-rule="evenodd" clip-rule="evenodd" d="M95.7464 50.8327C95.5989 50.5702 95.3039 50.4227 95.0039 50.4627C94.1989 50.5702 93.4014 50.6252 92.6314 50.6252C82.8639 50.6252 74.9189 42.6777 74.9189 32.9102C74.9189 28.8502 76.3289 24.8802 78.8914 21.7327C79.0839 21.4977 79.1139 21.1702 78.9639 20.9052C78.8164 20.6427 78.5189 20.4952 78.2214 20.5327C68.8464 21.7877 61.7639 29.8002 61.6089 39.2352C61.9189 39.2202 62.2264 39.2102 62.5364 39.2102C72.6264 39.2102 80.8389 47.4202 80.8389 57.5127C80.8389 57.9277 80.8214 58.3352 80.7939 58.7427C86.5864 58.7427 92.0114 56.1602 95.6739 51.6627C95.8639 51.4252 95.8939 51.0977 95.7464 50.8327" fill="#FF9933"/>
</svg>
