<svg width="100" height="100" viewBox="0 0 100 100" fill="none" xmlns="http://www.w3.org/2000/svg">
<path fill-rule="evenodd" clip-rule="evenodd" d="M73.2 39.855C71.8525 39.855 70.545 40.03 69.3 40.3575C66.9675 33.7425 60.665 29 53.2525 29C44.17 29 36.75 36.115 36.2625 45.0775C35.7075 45.005 35.145 44.9525 34.5675 44.9525C27.5 44.9525 21.7725 50.6825 21.7725 57.75C21.7725 64.815 27.5 70.545 34.5675 70.545H73.2C81.675 70.545 88.545 63.6775 88.545 55.2C88.545 46.725 81.675 39.855 73.2 39.855Z" fill="#121214" fill-opacity="0.53"/>
<path fill-rule="evenodd" clip-rule="evenodd" d="M61.4275 40.3378C60.08 40.3378 58.7725 40.5128 57.5275 40.8403C55.195 34.2253 48.8925 29.4828 41.48 29.4828C32.3975 29.4828 24.9775 36.5978 24.49 45.5603C23.935 45.4878 23.3725 45.4353 22.795 45.4353C15.7275 45.4353 10 51.1653 10 58.2328C10 65.2978 15.7275 71.0278 22.795 71.0278H61.4275C69.9025 71.0278 76.7725 64.1603 76.7725 55.6828C76.7725 47.2078 69.9025 40.3378 61.4275 40.3378Z" fill="#D0D2D3"/>
</svg>
