<svg width="100" height="100" viewBox="0 0 100 100" fill="none" xmlns="http://www.w3.org/2000/svg">
<path fill-rule="evenodd" clip-rule="evenodd" d="M67.5373 26.3735C66.1898 26.3735 64.8823 26.5485 63.6348 26.876C61.3048 20.261 54.9998 15.5185 47.5898 15.5185C38.5073 15.5185 31.0848 22.6335 30.5998 31.596C30.0423 31.5235 29.4798 31.471 28.9048 31.471C21.8373 31.471 16.1098 37.201 16.1098 44.2685C16.1098 51.336 21.8373 57.0635 28.9048 57.0635H67.5373C76.0123 57.0635 82.8823 50.196 82.8823 41.7185C82.8823 33.2435 76.0123 26.3735 67.5373 26.3735Z" fill="#D0D2D3"/>
<path fill-rule="evenodd" clip-rule="evenodd" d="M38.1279 63.1105C38.1279 63.1105 33.4904 65.3955 32.7304 65.873C31.9679 66.3505 31.6804 66.573 31.3054 67.123C30.1329 68.8505 30.5804 71.203 32.3079 72.3755C34.0354 73.5505 36.3879 73.103 37.5579 71.3755C37.9429 70.813 38.0054 70.503 38.2004 69.5505C38.3954 68.598 38.7204 63.5105 38.7204 63.5105C38.7579 63.1055 38.4904 62.9255 38.1279 63.1105Z" fill="#26A9E0"/>
<path fill-rule="evenodd" clip-rule="evenodd" d="M52.9327 63.1105C52.9327 63.1105 48.2952 65.3955 47.5377 65.873C46.7752 66.3505 46.4877 66.573 46.1127 67.123C44.9402 68.8505 45.3852 71.203 47.1127 72.3755C48.8402 73.5505 51.1927 73.103 52.3652 71.3755C52.7502 70.813 52.8127 70.503 53.0077 69.5505C53.2027 68.598 53.5277 63.5105 53.5277 63.5105C53.5627 63.1055 53.2952 62.9255 52.9327 63.1105Z" fill="#26A9E0"/>
<path fill-rule="evenodd" clip-rule="evenodd" d="M52.9327 75.6067C52.9327 75.6067 48.2952 77.8942 47.5377 78.3692C46.7752 78.8492 46.4877 79.0692 46.1127 79.6192C44.9402 81.3467 45.3852 83.6992 47.1127 84.8742C48.8402 86.0467 51.1927 85.5992 52.3652 83.8717C52.7502 83.3092 52.8127 82.9992 53.0077 82.0467C53.2027 81.0967 53.5277 76.0092 53.5277 76.0092C53.5627 75.6042 53.2952 75.4217 52.9327 75.6067Z" fill="#26A9E0"/>
<path fill-rule="evenodd" clip-rule="evenodd" d="M68.0158 63.1105C68.0158 63.1105 63.3783 65.3955 62.6183 65.873C61.8558 66.3505 61.5683 66.573 61.1933 67.123C60.0208 68.8505 60.4683 71.203 62.1958 72.3755C63.9233 73.5505 66.2758 73.103 67.4483 71.3755C67.8333 70.813 67.8958 70.503 68.0883 69.5505C68.2833 68.598 68.6083 63.5105 68.6083 63.5105C68.6458 63.1055 68.3783 62.9255 68.0158 63.1105Z" fill="#26A9E0"/>
<path fill-rule="evenodd" clip-rule="evenodd" d="M38.1279 75.6067C38.1279 75.6067 33.4904 77.8942 32.7304 78.3692C31.9679 78.8492 31.6804 79.0692 31.3054 79.6192C30.1329 81.3467 30.5804 83.6992 32.3079 84.8742C34.0354 86.0467 36.3879 85.5992 37.5579 83.8717C37.9429 83.3092 38.0054 82.9992 38.2004 82.0467C38.3954 81.0967 38.7204 76.0092 38.7204 76.0092C38.7579 75.6042 38.4904 75.4217 38.1279 75.6067Z" fill="#26A9E0"/>
<path fill-rule="evenodd" clip-rule="evenodd" d="M68.0158 75.6067C68.0158 75.6067 63.3783 77.8942 62.6183 78.3692C61.8558 78.8492 61.5683 79.0692 61.1933 79.6192C60.0208 81.3467 60.4683 83.6992 62.1958 84.8742C63.9233 86.0467 66.2758 85.5992 67.4483 83.8717C67.8333 83.3092 67.8958 82.9992 68.0883 82.0467C68.2833 81.0967 68.6083 76.0092 68.6083 76.0092C68.6458 75.6042 68.3783 75.4217 68.0158 75.6067Z" fill="#26A9E0"/>
<path fill-rule="evenodd" clip-rule="evenodd" d="M82.2832 63.1105C82.2832 63.1105 77.6457 65.3955 76.8857 65.873C76.1232 66.3505 75.8357 66.573 75.4607 67.123C74.2882 68.8505 74.7357 71.203 76.4632 72.3755C78.1907 73.5505 80.5432 73.103 81.7157 71.3755C82.1007 70.813 82.1632 70.503 82.3557 69.5505C82.5507 68.598 82.8757 63.5105 82.8757 63.5105C82.9132 63.1055 82.6457 62.9255 82.2832 63.1105Z" fill="#26A9E0"/>
<path fill-rule="evenodd" clip-rule="evenodd" d="M23.5845 63.1105C23.5845 63.1105 18.947 65.3955 18.187 65.873C17.427 66.3505 17.137 66.573 16.762 67.123C15.5895 68.8505 16.037 71.203 17.767 72.3755C19.492 73.5505 21.8445 73.103 23.017 71.3755C23.402 70.813 23.4645 70.503 23.6595 69.5505C23.8545 68.598 24.1795 63.5105 24.1795 63.5105C24.2145 63.1055 23.947 62.9255 23.5845 63.1105Z" fill="#26A9E0"/>
</svg>
