<svg width="100" height="100" viewBox="0 0 100 100" fill="none" xmlns="http://www.w3.org/2000/svg">
<path fill-rule="evenodd" clip-rule="evenodd" d="M26.8061 79.6925C26.6536 80.0075 26.5711 80.185 26.5061 80.46C26.1161 82.1425 27.2736 83.8525 29.0961 84.275C30.9136 84.6975 32.7061 83.6775 33.0986 81.9925C33.1611 81.72 33.1786 81.5075 33.1686 81.1725C33.3561 78.4 31.4636 74.085 31.4636 74.085C31.4636 74.085 27.8911 77.0875 26.8061 79.6925" fill="#26A9E0"/>
<path fill-rule="evenodd" clip-rule="evenodd" d="M36.2385 85.8497C36.0835 86.1647 36.001 86.3422 35.936 86.6197C35.5485 88.3022 36.706 90.0097 38.526 90.4322C40.346 90.8547 42.1385 89.8347 42.531 88.1497C42.5935 87.8747 42.6085 87.6672 42.5985 87.3297C42.786 84.5572 40.8935 80.2422 40.8935 80.2422C40.8935 80.2422 37.321 83.2472 36.2385 85.8497" fill="#26A9E0"/>
<path fill-rule="evenodd" clip-rule="evenodd" d="M44.7308 78.805C44.5783 79.12 44.4958 79.2975 44.4333 79.5725C44.0408 81.2575 45.2008 82.965 47.0207 83.3875C48.8382 83.81 50.6332 82.79 51.0257 81.105C51.0882 80.8325 51.1032 80.6225 51.0957 80.285C51.2782 77.5125 49.3882 73.1975 49.3882 73.1975C49.3882 73.1975 45.8157 76.2025 44.7308 78.805" fill="#26A9E0"/>
<path fill-rule="evenodd" clip-rule="evenodd" d="M64.6491 19.9342C64.9516 20.9942 66.0666 21.6117 67.1241 21.3092L67.2166 21.2842C68.2741 20.9792 68.8941 19.8667 68.5916 18.8067L67.2991 14.2867C66.9941 13.2292 65.8816 12.6117 64.8216 12.9142L64.7316 12.9392C63.6716 13.2417 63.0541 14.3567 63.3566 15.4142L64.6491 19.9342Z" fill="#FF9933"/>
<path fill-rule="evenodd" clip-rule="evenodd" d="M59.875 22.7992L56.495 19.5317C55.705 18.7667 54.43 18.7867 53.665 19.5792L53.6 19.6467C52.835 20.4392 52.855 21.7117 53.6475 22.4792L57.0275 25.7467C57.8175 26.5117 59.0925 26.4892 59.8575 25.6992L59.925 25.6292C60.69 24.8367 60.6675 23.5642 59.875 22.7992" fill="#FF9933"/>
<path fill-rule="evenodd" clip-rule="evenodd" d="M75.6135 21.1415L75.706 21.164C76.7735 21.4315 77.866 20.7765 78.1335 19.7065L79.2735 15.149C79.541 14.079 78.886 12.9865 77.816 12.719L77.726 12.6965C76.656 12.429 75.5635 13.084 75.2985 14.154L74.156 18.714C73.891 19.7815 74.546 20.874 75.6135 21.1415" fill="#FF9933"/>
<path fill-rule="evenodd" clip-rule="evenodd" d="M74.803 24.5828C68.3655 22.9728 61.853 26.5203 59.613 32.6103C59.7405 32.6078 59.863 32.6003 59.9905 32.6003C69.2055 32.6003 76.933 39.0778 78.868 47.7203C81.413 46.0053 83.3605 43.3953 84.163 40.1853C85.888 33.2903 81.6955 26.3053 74.803 24.5828" fill="#FF9933"/>
<path fill-rule="evenodd" clip-rule="evenodd" d="M94.593 40.68L90.033 39.5399C88.9655 39.2724 87.873 39.9275 87.6055 40.995L87.5805 41.0875C87.313 42.1575 87.9705 43.25 89.038 43.515L93.598 44.655C94.668 44.9225 95.7605 44.2675 96.0255 43.2L96.0505 43.1075C96.3155 42.04 95.6605 40.9475 94.593 40.68" fill="#FF9933"/>
<path fill-rule="evenodd" clip-rule="evenodd" d="M89.1671 19.0492L89.0996 18.9842C88.3071 18.2167 87.0346 18.2392 86.2671 19.0317L83.0021 22.4092C82.2346 23.2017 82.2571 24.4742 83.0496 25.2417L83.1171 25.3067C83.9071 26.0717 85.1821 26.0517 85.9471 25.2592L89.2146 21.8792C89.9796 21.0867 89.9596 19.8142 89.1671 19.0492" fill="#FF9933"/>
<path fill-rule="evenodd" clip-rule="evenodd" d="M89.715 51.6517L86.335 48.3842C85.545 47.6192 84.27 47.6392 83.505 48.4317L83.44 48.4992C82.675 49.2917 82.695 50.5642 83.4875 51.3317L86.865 54.5992C87.6575 55.3617 88.9325 55.3417 89.6975 54.5517L89.765 54.4817C90.53 53.6892 90.5075 52.4167 89.715 51.6517" fill="#FF9933"/>
<path fill-rule="evenodd" clip-rule="evenodd" d="M87.464 32.599C87.7665 33.659 88.879 34.2766 89.939 33.9741L94.4565 32.6815C95.5165 32.379 96.1365 31.264 95.834 30.204L95.8065 30.114C95.504 29.0565 94.3915 28.4365 93.3315 28.7415L88.8115 30.034C87.754 30.3365 87.134 31.449 87.4365 32.509L87.464 32.599Z" fill="#FF9933"/>
<path fill-rule="evenodd" clip-rule="evenodd" d="M59.9898 35.873C58.5773 35.873 57.2098 36.0555 55.9048 36.398C53.4598 29.4655 46.8573 24.5005 39.0923 24.5005C29.5748 24.5005 21.8023 31.9555 21.2923 41.343C20.7098 41.268 20.1198 41.213 19.5173 41.213C12.1123 41.213 6.1098 47.2155 6.1098 54.6205C6.1098 62.023 12.1123 68.028 19.5173 68.028H59.9898C68.5148 68.028 75.4698 61.388 76.0148 53.0005C76.0373 52.6505 76.0673 52.303 76.0673 51.9505C76.0673 43.068 68.8673 35.873 59.9898 35.873" fill="#D0D2D3"/>
</svg>
