<svg width="100" height="100" viewBox="0 0 100 100" fill="none" xmlns="http://www.w3.org/2000/svg">
<path fill-rule="evenodd" clip-rule="evenodd" d="M29.1278 77.1095C28.9728 77.4295 28.8903 77.6095 28.8253 77.887C28.4328 79.582 29.5978 81.302 31.4328 81.7295C33.2653 82.1545 35.0703 81.127 35.4678 79.4295C35.5303 79.1495 35.5453 78.942 35.5378 78.6045C35.7253 75.8095 33.8178 71.4645 33.8178 71.4645C33.8178 71.4645 30.2203 74.4895 29.1278 77.1095" fill="#26A9E0"/>
<path fill-rule="evenodd" clip-rule="evenodd" d="M38.6297 83.3142C38.4747 83.6342 38.3922 83.8142 38.3247 84.0892C37.9347 85.7867 39.0997 87.5092 40.9347 87.9292C42.7672 88.3592 44.5747 87.3292 44.9722 85.6342C45.0322 85.3542 45.0472 85.1442 45.0397 84.8042C45.2247 82.0117 43.3172 77.6692 43.3172 77.6692C43.3172 77.6692 39.7222 80.6917 38.6297 83.3142" fill="#26A9E0"/>
<path fill-rule="evenodd" clip-rule="evenodd" d="M47.1857 76.2208C47.0332 76.5333 46.9482 76.7133 46.8832 76.9908C46.4907 78.6858 47.6582 80.4108 49.4907 80.8358C51.3232 81.2608 53.1307 80.2308 53.5282 78.5358C53.5907 78.2608 53.6032 78.0458 53.5957 77.7083C53.7832 74.9158 51.8782 70.5683 51.8782 70.5683C51.8782 70.5683 48.2782 73.5983 47.1857 76.2208" fill="#26A9E0"/>
<path fill-rule="evenodd" clip-rule="evenodd" d="M60.0361 34.8377C58.6886 34.8377 57.3836 35.0127 56.1361 35.3377C53.8036 28.7227 47.5011 23.9802 40.0886 23.9802C31.0061 23.9802 23.5861 31.0977 23.1011 40.0577C22.5436 39.9852 21.9811 39.9352 21.4061 39.9352C14.3386 39.9352 8.60855 45.6627 8.60855 52.7302C8.60855 59.7977 14.3386 65.5277 21.4061 65.5277H60.0361C68.1736 65.5277 74.8111 59.1902 75.3311 51.1852C75.3511 50.8527 75.3811 50.5202 75.3811 50.1827C75.3811 41.7052 68.5111 34.8377 60.0361 34.8377" fill="#D0D2D3"/>
<path fill-rule="evenodd" clip-rule="evenodd" d="M93.2465 43.5023C93.099 43.2398 92.804 43.0923 92.504 43.1323C91.699 43.2398 90.9015 43.2948 90.1315 43.2948C80.364 43.2948 72.419 35.3473 72.419 25.5798C72.419 21.5198 73.829 17.5498 76.3915 14.4023C76.584 14.1673 76.614 13.8398 76.464 13.5748C76.3165 13.3098 76.019 13.1648 75.7215 13.2023C66.3465 14.4573 59.264 22.4698 59.109 31.9048C59.419 31.8898 59.7265 31.8798 60.0365 31.8798C70.1265 31.8798 78.339 40.0898 78.339 50.1823C78.339 50.5973 78.3215 51.0048 78.294 51.4123C84.0865 51.4123 89.5115 48.8298 93.174 44.3323C93.364 44.0948 93.394 43.7673 93.2465 43.5023" fill="#FF9933"/>
</svg>
