<svg width="100" height="100" viewBox="0 0 100 100" fill="none" xmlns="http://www.w3.org/2000/svg">
<path fill-rule="evenodd" clip-rule="evenodd" d="M67.5348 23.1812C66.1898 23.1812 64.8798 23.3562 63.6348 23.6812C61.3048 17.0662 54.9998 12.3262 47.5873 12.3262C38.5073 12.3262 31.0848 19.4412 30.5998 28.4012C30.0423 28.3312 29.4798 28.2787 28.9048 28.2787C21.8373 28.2787 16.1098 34.0062 16.1098 41.0737C16.1098 48.1412 21.8373 53.8712 28.9048 53.8712H67.5348C76.0123 53.8712 82.8823 47.0012 82.8823 38.5262C82.8823 30.0512 76.0123 23.1812 67.5348 23.1812Z" fill="#D0D2D3"/>
<path fill-rule="evenodd" clip-rule="evenodd" d="M43.8566 59.9635C43.8566 59.9635 34.1641 64.741 32.5791 65.7385C30.9891 66.736 30.3841 67.1985 29.6041 68.351C27.1491 71.9585 28.0866 76.8735 31.6966 79.326C35.3066 81.7785 40.2191 80.8435 42.6716 77.236C43.4716 76.0585 43.6041 75.411 44.0116 73.421C44.4191 71.4335 45.1016 60.801 45.1016 60.801C45.1716 59.956 44.6141 59.5785 43.8566 59.9635Z" fill="#26A9E0"/>
<path fill-rule="evenodd" clip-rule="evenodd" d="M72.8984 72.2133L63.4109 72.4633L69.5634 60.8683C69.6634 60.6833 69.6409 60.4683 69.5059 60.2958C69.3709 60.1258 69.1409 60.0208 68.8884 60.0158L58.4859 59.8708C58.1784 59.8933 57.8709 60.0333 57.7659 60.2858L49.8584 79.2658C49.7834 79.4533 49.8234 79.6583 49.9634 79.8183C50.1034 79.9758 50.3284 80.0708 50.5659 80.0708H50.5734L59.9684 80.0158L56.1059 92.2658C56.0159 92.5533 56.1909 92.8533 56.5259 92.9733C56.6234 93.0108 56.7259 93.0283 56.8284 93.0283C57.0734 93.0283 57.3109 92.9308 57.4509 92.7583L73.5434 73.1608C73.6984 72.9733 73.7134 72.7283 73.5759 72.5258C73.4409 72.3258 73.1734 72.1933 72.8984 72.2133Z" fill="#FF9933"/>
</svg>
