<svg width="100" height="100" viewBox="0 0 100 100" fill="none" xmlns="http://www.w3.org/2000/svg">
<path fill-rule="evenodd" clip-rule="evenodd" d="M65.7647 24.844C64.4172 24.844 63.1097 25.019 61.8647 25.3465C59.5322 18.729 53.2297 13.989 45.8172 13.989C36.7347 13.989 29.3147 21.104 28.8297 30.0665C28.2722 29.994 27.7072 29.9415 27.1322 29.9415C20.0672 29.9415 14.3372 35.669 14.3372 42.7365C14.3372 49.804 20.0672 55.5315 27.1322 55.5315H65.7647C74.2397 55.5315 81.1097 48.664 81.1097 40.189C81.1097 31.7115 74.2397 24.844 65.7647 24.844Z" fill="#D0D2D3"/>
<path fill-rule="evenodd" clip-rule="evenodd" d="M60.3912 80.2662L57.3737 79.0837L59.7262 76.8562C59.9312 76.6637 59.9412 76.3362 59.7462 76.1312L58.7962 75.1262C58.6012 74.9212 58.2737 74.9112 58.0687 75.1087L55.9312 77.1337L55.3662 74.2387C55.3137 73.9637 55.0412 73.7787 54.7637 73.8337L53.4062 74.0987C53.1312 74.1537 52.9462 74.4237 53.0012 74.7012L53.5662 77.5962L50.8212 76.5187C50.5562 76.4162 50.2562 76.5487 50.1537 76.8087L49.6512 78.0987C49.5462 78.3587 49.6787 78.6587 49.9412 78.7612L52.9587 79.9437L50.6062 82.1737C50.4012 82.3687 50.3912 82.6937 50.5862 82.9012L51.5362 83.9037C51.7312 84.1087 52.0587 84.1187 52.2637 83.9237L54.4012 81.8962L54.9662 84.7912C55.0237 85.0662 55.2937 85.2487 55.5687 85.1962L56.9262 84.9312C57.2037 84.8762 57.3862 84.6062 57.3312 84.3287L56.7687 81.4362L59.5112 82.5087C59.7762 82.6137 60.0762 82.4837 60.1787 82.2187L60.6812 80.9337C60.7837 80.6687 60.6537 80.3687 60.3912 80.2662Z" fill="#26A9E0"/>
<path fill-rule="evenodd" clip-rule="evenodd" d="M60.3912 66.4382L57.3737 65.2557L59.7262 63.0282C59.9312 62.8332 59.9412 62.5057 59.7462 62.3007L58.7962 61.2982C58.6012 61.0932 58.2737 61.0832 58.0687 61.2782L55.9312 63.3057L55.3662 60.4107C55.3137 60.1357 55.0412 59.9507 54.7637 60.0057L53.4062 60.2682C53.1312 60.3232 52.9462 60.5932 53.0012 60.8707L53.5662 63.7657L50.8212 62.6907C50.5562 62.5882 50.2562 62.7182 50.1537 62.9807L49.6512 64.2682C49.5462 64.5307 49.6787 64.8307 49.9412 64.9332L52.9587 66.1157L50.6062 68.3457C50.4012 68.5382 50.3912 68.8657 50.5862 69.0732L51.5362 70.0757C51.7312 70.2807 52.0587 70.2882 52.2637 70.0957L54.4012 68.0657L54.9662 70.9607C55.0237 71.2382 55.2937 71.4207 55.5687 71.3682L56.9262 71.1032C57.2037 71.0482 57.3862 70.7757 57.3312 70.5007L56.7687 67.6082L59.5112 68.6807C59.7762 68.7832 60.0762 68.6532 60.1787 68.3907L60.6812 67.1057C60.7837 66.8382 60.6537 66.5407 60.3912 66.4382Z" fill="#26A9E0"/>
<path fill-rule="evenodd" clip-rule="evenodd" d="M74.5635 66.4382L71.546 65.2557L73.8985 63.0282C74.1035 62.8332 74.1135 62.5057 73.9185 62.3007L72.9685 61.2982C72.7735 61.0932 72.446 61.0832 72.241 61.2782L70.1035 63.3057L69.5385 60.4107C69.486 60.1357 69.2135 59.9507 68.936 60.0057L67.5785 60.2682C67.3035 60.3232 67.1185 60.5932 67.1735 60.8707L67.7385 63.7657L64.9935 62.6907C64.7285 62.5882 64.4285 62.7182 64.326 62.9807L63.8235 64.2682C63.7185 64.5307 63.851 64.8307 64.1135 64.9332L67.131 66.1157L64.7785 68.3457C64.5735 68.5382 64.5635 68.8657 64.7585 69.0732L65.7085 70.0757C65.9035 70.2807 66.231 70.2882 66.436 70.0957L68.5735 68.0657L69.1385 70.9607C69.196 71.2382 69.466 71.4207 69.741 71.3682L71.0985 71.1032C71.3785 71.0482 71.5585 70.7757 71.5035 70.5007L70.9435 67.6082L73.6835 68.6807C73.9485 68.7832 74.2485 68.6532 74.351 68.3907L74.856 67.1057C74.9585 66.8382 74.826 66.5407 74.5635 66.4382Z" fill="#26A9E0"/>
<path fill-rule="evenodd" clip-rule="evenodd" d="M45.8845 80.1417L42.867 78.9617L45.2195 76.7342C45.4245 76.5392 45.432 76.2117 45.2395 76.0067L44.2895 75.0042C44.0945 74.7992 43.767 74.7892 43.562 74.9842L41.4245 77.0092L40.8595 74.1167C40.807 73.8392 40.5345 73.6567 40.257 73.7117L38.8995 73.9742C38.6245 74.0292 38.4395 74.2992 38.4945 74.5767L39.0595 77.4717L36.3145 76.3967C36.0495 76.2942 35.7495 76.4242 35.647 76.6867L35.142 77.9742C35.0395 78.2367 35.172 78.5342 35.4345 78.6392L38.452 79.8217L36.0995 82.0492C35.8945 82.2442 35.8845 82.5717 36.0795 82.7767L37.0295 83.7792C37.2245 83.9842 37.552 83.9942 37.757 83.7992L39.8945 81.7717L40.4595 84.6667C40.5145 84.9442 40.787 85.1267 41.062 85.0717L42.4195 84.8092C42.697 84.7542 42.8795 84.4817 42.8245 84.2067L42.262 81.3142L45.0045 82.3867C45.2695 82.4892 45.5695 82.3592 45.672 82.0942L46.1745 80.8092C46.277 80.5442 46.147 80.2442 45.8845 80.1417Z" fill="#26A9E0"/>
<path fill-rule="evenodd" clip-rule="evenodd" d="M45.8845 66.3138L42.867 65.1313L45.2195 62.9063C45.4245 62.7113 45.432 62.3838 45.2395 62.1788L44.2895 61.1738C44.0945 60.9688 43.767 60.9613 43.562 61.1563L41.4245 63.1813L40.8595 60.2888C40.807 60.0113 40.5345 59.8263 40.257 59.8838L38.8995 60.1463C38.6245 60.2013 38.4395 60.4713 38.4945 60.7488L39.0595 63.6438L36.3145 62.5688C36.0495 62.4638 35.7495 62.5963 35.647 62.8588L35.142 64.1463C35.0395 64.4063 35.172 64.7063 35.4345 64.8088L38.452 65.9913L36.0995 68.2213C35.8945 68.4163 35.8845 68.7438 36.0795 68.9488L37.0295 69.9513C37.2245 70.1563 37.552 70.1663 37.757 69.9713L39.8945 67.9438L40.4595 70.8388C40.5145 71.1163 40.787 71.2963 41.062 71.2438L42.4195 70.9788C42.697 70.9263 42.8795 70.6538 42.8245 70.3763L42.262 67.4863L45.0045 68.5563C45.2695 68.6613 45.5695 68.5313 45.672 68.2663L46.1745 66.9813C46.277 66.7163 46.147 66.4163 45.8845 66.3138Z" fill="#26A9E0"/>
<path fill-rule="evenodd" clip-rule="evenodd" d="M31.8538 66.3138L28.8363 65.1313L31.1888 62.9063C31.3938 62.7113 31.4038 62.3838 31.2088 62.1788L30.2588 61.1738C30.0638 60.9688 29.7388 60.9613 29.5338 61.1563L27.3938 63.1813L26.8288 60.2888C26.7763 60.0113 26.5038 59.8263 26.2263 59.8838L24.8713 60.1463C24.5938 60.2013 24.4088 60.4713 24.4638 60.7488L25.0288 63.6438L22.2838 62.5688C22.0188 62.4638 21.7213 62.5963 21.6163 62.8588L21.1138 64.1463C21.0113 64.4063 21.1413 64.7063 21.4038 64.8088L24.4238 65.9913L22.0688 68.2213C21.8638 68.4163 21.8563 68.7438 22.0513 68.9488L23.0013 69.9513C23.1938 70.1563 23.5213 70.1663 23.7263 69.9713L25.8663 67.9438L26.4313 70.8388C26.4863 71.1163 26.7563 71.2963 27.0338 71.2438L28.3888 70.9788C28.6688 70.9263 28.8513 70.6538 28.7963 70.3763L28.2338 67.4863L30.9738 68.5563C31.2388 68.6613 31.5388 68.5313 31.6413 68.2663L32.1463 66.9813C32.2488 66.7163 32.1163 66.4163 31.8538 66.3138Z" fill="#26A9E0"/>
<path fill-rule="evenodd" clip-rule="evenodd" d="M74.3022 80.5885L71.2847 79.406L73.6372 77.181C73.8422 76.986 73.8522 76.6585 73.6572 76.4535L72.7072 75.4485C72.5122 75.2435 72.1847 75.2335 71.9797 75.431L69.8422 77.456L69.2772 74.5635C69.2247 74.286 68.9522 74.101 68.6747 74.1585L67.3172 74.421C67.0422 74.476 66.8572 74.746 66.9122 75.0235L67.4772 77.9185L64.7322 76.8435C64.4672 76.7385 64.1672 76.871 64.0647 77.1335L63.5622 78.421C63.4572 78.681 63.5897 78.981 63.8522 79.0835L66.8697 80.266L64.5172 82.496C64.3122 82.691 64.3047 83.0185 64.4972 83.2235L65.4497 84.226C65.6422 84.431 65.9697 84.441 66.1747 84.246L68.3122 82.2185L68.8772 85.1135C68.9347 85.391 69.2047 85.571 69.4797 85.5185L70.8372 85.2535C71.1172 85.201 71.2997 84.9285 71.2422 84.651L70.6822 81.761L73.4222 82.831C73.6872 82.936 73.9872 82.806 74.0897 82.541L74.5947 81.256C74.6972 80.991 74.5647 80.691 74.3022 80.5885Z" fill="#26A9E0"/>
<path fill-rule="evenodd" clip-rule="evenodd" d="M31.5926 80.4665L28.5751 79.284L30.9276 77.0565C31.1326 76.8615 31.1426 76.534 30.9476 76.3315L29.9976 75.3265C29.8051 75.1215 29.4776 75.1115 29.2726 75.3065L27.1326 77.334L26.5676 74.439C26.5151 74.164 26.2426 73.979 25.9651 74.034L24.6101 74.2965C24.3326 74.354 24.1476 74.624 24.2026 74.899L24.7676 77.794L22.0226 76.719C21.7576 76.6165 21.4601 76.749 21.3551 77.009L20.8526 78.2965C20.7501 78.559 20.8801 78.859 21.1426 78.9615L24.1626 80.144L21.8101 82.374C21.6026 82.5665 21.5951 82.894 21.7901 83.1015L22.7401 84.104C22.9326 84.309 23.2601 84.3165 23.4651 84.124L25.6051 82.094L26.1701 84.989C26.2251 85.2665 26.4951 85.449 26.7726 85.3965L28.1276 85.1315C28.4076 85.0765 28.5901 84.8065 28.5351 84.529L27.9726 81.6365L30.7126 82.709C30.9776 82.8115 31.2776 82.684 31.3801 82.419L31.8851 81.134C31.9876 80.8665 31.8551 80.569 31.5926 80.4665Z" fill="#26A9E0"/>
</svg>
