<svg width="100" height="100" viewBox="0 0 100 100" fill="none" xmlns="http://www.w3.org/2000/svg">
<path fill-rule="evenodd" clip-rule="evenodd" d="M19.8676 47.3758H81.4801C83.1051 47.3758 84.4376 46.2008 84.4376 44.7658C84.4376 43.3308 83.1051 42.1583 81.4801 42.1583H19.8676C18.2401 42.1583 16.9101 43.3308 16.9101 44.7658C16.9101 46.2008 18.2401 47.3758 19.8676 47.3758Z" fill="#26A9E0"/>
<path fill-rule="evenodd" clip-rule="evenodd" d="M81.479 53.865H19.8665C18.2415 53.865 16.909 55.04 16.909 56.475C16.909 57.91 18.2415 59.0825 19.8665 59.0825H81.479C83.1065 59.0825 84.4365 57.91 84.4365 56.475C84.4365 55.04 83.1065 53.865 81.479 53.865Z" fill="#26A9E0"/>
<path fill-rule="evenodd" clip-rule="evenodd" d="M73.3455 65.4492H28.0005C26.3755 65.4492 25.043 66.6242 25.043 68.0592C25.043 69.4917 26.3755 70.6667 28.0005 70.6667H73.3455C74.973 70.6667 76.303 69.4917 76.303 68.0592C76.303 66.6242 74.973 65.4492 73.3455 65.4492Z" fill="#26A9E0"/>
<path fill-rule="evenodd" clip-rule="evenodd" d="M28.0013 35.9133H73.3463C74.9738 35.9133 76.3038 34.7383 76.3038 33.3033C76.3038 31.8683 74.9738 30.6933 73.3463 30.6933H28.0013C26.3763 30.6933 25.0438 31.8683 25.0438 33.3033C25.0438 34.7383 26.3763 35.9133 28.0013 35.9133Z" fill="#26A9E0"/>
</svg>
