<svg width="50" height="37" viewBox="0 0 50 37" fill="none" xmlns="http://www.w3.org/2000/svg">
<path d="M48.7388 17.661L50 16.8544L48.6468 15.989C47.1829 15.0527 46.7877 13.0886 47.7758 11.659L48.6891 10.3377L47.2142 10.0816C45.4917 9.78239 44.3669 8.10677 44.7422 6.39939L45.0636 4.93729L43.4949 5.28215C41.7976 5.65526 40.1294 4.54585 39.8173 2.83625L39.5288 1.25624L38.3047 2.11804C36.8752 3.12449 34.895 2.73503 33.9531 1.26219L33.1465 0.00100708L32.2811 1.35419C31.3448 2.81815 29.3807 3.21333 27.9512 2.22521L26.6299 1.31192L26.3737 2.78687C26.0745 4.5093 24.399 5.63413 22.6915 5.2588L21.2294 4.93741L21.5743 6.50609C21.9474 8.20343 20.838 9.87158 19.1284 10.1838L17.5484 10.4722L18.4102 11.6963C19.4166 13.1258 19.0272 15.106 17.5543 16.0479L16.2932 16.8545L17.6462 17.7199C19.1103 18.6562 19.5054 20.6203 18.5172 22.0498L17.604 23.3711L19.0789 23.6273C20.8013 23.9265 21.9262 25.6021 21.5508 27.3095L21.2294 28.7716L22.7981 28.4267C24.4955 28.0536 26.1636 29.163 26.4758 30.8726L26.7643 32.4528L27.9883 31.591C29.4178 30.5845 31.3981 30.974 32.3399 32.4468L33.1465 33.708L34.0119 32.3548C34.9482 30.8909 36.9123 30.4957 38.3419 31.4838L39.6632 32.3971L39.9193 30.9221C40.2185 29.1997 41.8941 28.0749 43.6015 28.4502L45.0636 28.7716L44.7188 27.2029C44.3456 25.5056 45.4551 23.8374 47.1647 23.5252L48.7448 23.2368L47.883 22.0127C46.8765 20.5832 47.266 18.6029 48.7388 17.661Z" fill="#FDBF2D"/>
<path d="M47.8831 22.0121L48.7446 23.2355L47.1651 23.5239C45.4548 23.8368 44.3457 25.505 44.7193 27.2025L45.0637 28.7704L43.6021 28.4493C41.8941 28.0734 40.2188 29.1988 39.9188 30.9208L39.6631 32.3964L38.3416 31.4823C36.9126 30.4947 34.9478 30.8893 34.0116 32.3532L33.1465 33.7075V0L33.9532 1.26083C34.8953 2.73414 36.8753 3.12407 38.3042 2.11657L39.5289 1.255L39.8172 2.83571C40.1289 4.54484 41.7972 5.65391 43.4947 5.28149L45.0637 4.93593L44.7427 6.39873C44.3667 8.10553 45.4921 9.78197 47.2141 10.0808L48.6886 10.3365L47.7757 11.658C46.788 13.0882 47.1826 15.0518 48.6466 15.9881L49.9996 16.8531L48.7388 17.6598C47.2655 18.602 46.8767 20.5819 47.8831 22.0121Z" fill="#FD9827"/>
<path d="M33.1465 28.6666C39.6707 28.6666 44.9596 23.3777 44.9596 16.8535C44.9596 10.3293 39.6707 5.04041 33.1465 5.04041C26.6223 5.04041 21.3334 10.3293 21.3334 16.8535C21.3334 23.3777 26.6223 28.6666 33.1465 28.6666Z" fill="#FFE05F"/>
<path d="M44.9598 16.8531C44.9598 23.3779 39.6701 28.6664 33.1465 28.6664V5.04099C39.6701 5.04099 44.9598 10.3295 44.9598 16.8531Z" fill="#F9CB0D"/>
<path d="M34.1989 20.6392C33.894 20.6392 33.5939 20.6588 33.2981 20.6932C33.3272 20.362 33.343 20.0269 33.343 19.6881C33.343 13.4174 28.2596 8.33395 21.9888 8.33395C16.7663 8.33395 12.368 11.8603 11.0433 16.6615C10.6226 16.6062 10.1937 16.5772 9.75803 16.5772C4.36879 16.5772 0 20.946 0 26.3353C0 31.7245 4.36879 36.0933 9.75803 36.0933H34.1989C38.4665 36.0933 41.926 32.6337 41.926 28.3663C41.926 24.0987 38.4665 20.6392 34.1989 20.6392Z" fill="white"/>
<path d="M41.9259 28.366C41.9259 32.6338 38.4666 36.0932 34.1987 36.0932H20.963V8.37989C21.3009 8.34883 21.643 8.33377 21.989 8.33377C28.2599 8.33377 33.3432 13.417 33.3432 19.6879C33.3432 20.027 33.3272 20.3619 33.298 20.693C33.5939 20.6589 33.8937 20.6388 34.1987 20.6388C38.4666 20.6388 41.9259 24.0991 41.9259 28.366Z" fill="#DAEFEC"/>
</svg>
