<svg width="119" height="119" viewBox="0 0 119 119" fill="none" xmlns="http://www.w3.org/2000/svg">
<path fill-rule="evenodd" clip-rule="evenodd" d="M28.9331 59.3436C28.9331 76.1396 42.5491 89.7556 59.3451 89.7556C76.1411 89.7556 89.7571 76.1396 89.7571 59.3436C89.7571 42.5476 76.1411 28.9316 59.3451 28.9316C42.5491 28.9316 28.9331 42.5476 28.9331 59.3436Z" fill="#F2CB05"/>
<path fill-rule="evenodd" clip-rule="evenodd" d="M113.951 54.5001H102.843C100.239 54.5001 98.1108 56.6281 98.1108 59.2321V59.4561C98.1108 62.0601 100.239 64.1881 102.843 64.1881H113.951C116.555 64.1881 118.683 62.0601 118.683 59.4561V59.2321C118.683 56.6281 116.555 54.5001 113.951 54.5001Z" fill="#F2CB05"/>
<path fill-rule="evenodd" clip-rule="evenodd" d="M20.576 59.4549V59.2309C20.576 56.6269 18.448 54.4989 15.844 54.4989H4.736C2.132 54.4989 0 56.6269 0 59.2309V59.4549C0 62.0589 2.132 64.1869 4.736 64.1869H15.844C18.448 64.1869 20.576 62.0589 20.576 59.4549Z" fill="#F2CB05"/>
<path fill-rule="evenodd" clip-rule="evenodd" d="M89.1112 8.00764L88.9192 7.89564C86.6632 6.59564 83.7552 7.37164 82.4512 9.62764L76.8992 19.2516C75.5952 21.5036 76.3752 24.4156 78.6272 25.7156L78.8232 25.8276C81.0752 27.1276 83.9872 26.3476 85.2872 24.0916L90.8432 14.4716C92.1432 12.2196 91.3632 9.30764 89.1112 8.00764Z" fill="#F2CB05"/>
<path fill-rule="evenodd" clip-rule="evenodd" d="M40.0564 92.9724L39.8644 92.8604C37.6084 91.5564 34.7004 92.3364 33.4004 94.5924L27.8444 104.212C26.5444 106.468 27.3204 109.376 29.5764 110.676L29.7684 110.792C32.0244 112.092 34.9324 111.312 36.2324 109.056L41.7884 99.4364C43.0884 97.1804 42.3124 94.2724 40.0564 92.9724Z" fill="#F2CB05"/>
<path fill-rule="evenodd" clip-rule="evenodd" d="M85.2868 94.5916C83.9868 92.3396 81.0748 91.5596 78.8228 92.8596L78.6268 92.9716C76.3748 94.2716 75.5948 97.1796 76.8988 99.4356L82.4548 109.06C83.7548 111.312 86.6628 112.092 88.9188 110.792L89.1108 110.676C91.3668 109.376 92.1428 106.468 90.8428 104.212L85.2868 94.5916Z" fill="#F2CB05"/>
<path fill-rule="evenodd" clip-rule="evenodd" d="M33.3999 24.0936C34.6999 26.3496 37.6079 27.1256 39.8639 25.8256L40.0559 25.7136C42.3119 24.4136 43.0879 21.5056 41.7879 19.2496L36.2319 9.6296C34.9319 7.3736 32.0239 6.5936 29.7679 7.8976L29.5759 8.0096C27.3199 9.3096 26.5439 12.2176 27.8439 14.4736L33.3999 24.0936Z" fill="#F2CB05"/>
<path fill-rule="evenodd" clip-rule="evenodd" d="M24.0936 33.3984L14.4736 27.8424C12.2176 26.5424 9.3096 27.3224 8.0096 29.5744L7.8976 29.7704C6.5936 32.0224 7.3736 34.9344 9.6296 36.2344L19.2496 41.7904C21.5056 43.0904 24.4136 42.3104 25.7136 40.0584L25.8256 39.8624C27.1296 37.6104 26.3456 34.6984 24.0936 33.3984Z" fill="#F2CB05"/>
<path fill-rule="evenodd" clip-rule="evenodd" d="M109.058 82.4529L99.4343 76.8969C97.1823 75.5969 94.2743 76.3729 92.9743 78.6289L92.8623 78.8209C91.5583 81.0769 92.3383 83.9849 94.5903 85.2849L104.214 90.8409C106.47 92.1409 109.378 91.3649 110.678 89.1129L110.79 88.9169C112.09 86.6609 111.31 83.7529 109.058 82.4529Z" fill="#F2CB05"/>
<path fill-rule="evenodd" clip-rule="evenodd" d="M25.7148 78.6289C24.4108 76.3769 21.5068 75.5969 19.2508 76.8969L9.63081 82.4529C7.37481 83.7529 6.59481 86.6609 7.89481 88.9169L8.01081 89.1129C9.31081 91.3649 12.2188 92.1409 14.4708 90.8409L24.0948 85.2889C26.3468 83.9849 27.1308 81.0769 25.8268 78.8209L25.7148 78.6289Z" fill="#F2CB05"/>
<path fill-rule="evenodd" clip-rule="evenodd" d="M92.9724 40.0564C94.2724 42.3084 97.1844 43.0884 99.4364 41.7884L109.056 36.2324C111.312 34.9324 112.092 32.0244 110.792 29.7684L110.676 29.5764C109.376 27.3204 106.468 26.5444 104.216 27.8444L94.5924 33.3964C92.3364 34.7004 91.5564 37.6084 92.8604 39.8644L92.9724 40.0564Z" fill="#F2CB05"/>
<path fill-rule="evenodd" clip-rule="evenodd" d="M59.2319 20.576H59.4559C62.0599 20.576 64.1879 18.448 64.1879 15.844V4.736C64.1879 2.132 62.0599 0 59.4559 0H59.2319C56.6279 0 54.4999 2.132 54.4999 4.736V15.844C54.4999 18.448 56.6279 20.576 59.2319 20.576Z" fill="#F2CB05"/>
<path fill-rule="evenodd" clip-rule="evenodd" d="M59.4548 98.1092H59.2308C56.6268 98.1092 54.4988 100.237 54.4988 102.841V113.953C54.4988 116.553 56.6268 118.685 59.2308 118.685H59.4548C62.0588 118.685 64.1868 116.553 64.1868 113.953V102.841C64.1868 100.237 62.0588 98.1092 59.4548 98.1092Z" fill="#F2CB05"/>
</svg>
