<svg width="30" height="27" viewBox="0 0 30 27" fill="none" xmlns="http://www.w3.org/2000/svg">
<path d="M3.65703 0C4.59115 0 5.32256 0.29448 5.85399 0.880701C6.38543 1.46692 6.67032 2.20655 6.70867 3.09273C6.70867 3.96795 6.41008 4.7062 5.80879 5.30612C5.20751 5.90467 4.3857 6.20463 3.34612 6.20463H3.30914C2.29421 6.20463 1.49021 5.90467 0.891659 5.30612C0.299959 4.7062 0 3.96795 0 3.09273C0 2.19285 0.325983 1.45323 0.983427 0.871114C1.64087 0.290371 2.5339 0 3.65703 0ZM0.393097 8.66183H6.80729V26.6813H0.393097V8.66183ZM30 16.3498V26.6813H23.5872V17.0442C23.5872 15.8184 23.3352 14.8363 22.8339 14.0885C22.3353 13.3475 21.5012 12.9763 20.3232 12.9763C19.4261 12.9763 18.7057 13.2037 18.1687 13.6611C17.6305 14.1159 17.2401 14.6185 17.0045 15.1705C16.9278 15.3705 16.8799 15.591 16.8539 15.8362C16.8292 16.0772 16.8182 16.3389 16.8182 16.6142V26.6826H10.3657C10.3931 23.6337 10.4082 20.8369 10.4082 18.3002V15.0966V12.186C10.4082 11.2998 10.3986 10.5438 10.3835 9.91645C10.3753 9.29462 10.3657 8.87413 10.3657 8.66183H16.8182V11.2135L16.7826 11.2875H16.8182V11.2135C17.0182 10.8999 17.2743 10.5725 17.5866 10.2287C17.903 9.88632 18.2811 9.56581 18.7413 9.26996C19.1974 8.97685 19.7466 8.73579 20.3904 8.53993C21.0382 8.3468 21.7751 8.25092 22.6147 8.25092C23.6584 8.25092 24.6336 8.40981 25.5431 8.72894C26.4498 9.04808 27.2291 9.54801 27.8921 10.2301C28.5509 10.9081 29.0673 11.7518 29.4425 12.7599C29.8165 13.7652 30 14.9623 30 16.3498Z" fill="#030104"/>
</svg>
