<svg width="31" height="38" viewBox="0 0 31 38" fill="none" xmlns="http://www.w3.org/2000/svg">
<path d="M29.7594 15.7319C29.8986 14.851 29.9855 13.8851 30.0074 12.802C29.999 8.15788 27.7758 6.51457 27.3481 5.74418C27.9781 2.22538 27.2437 0.624792 26.9022 0.0768656C25.6425 -0.370255 22.5196 1.23088 20.8132 2.35801C18.0312 1.54365 12.1519 1.62313 9.94711 2.5688C5.87912 -0.344074 3.72755 0.100068 3.72755 0.100068C3.72755 0.100068 2.33656 2.59435 3.35983 6.24335C2.02137 7.94898 1.02373 9.15489 1.02373 12.3536C1.02373 13.1196 1.07131 13.8435 1.15205 14.54C2.30474 20.6008 7.10714 23.2154 11.8245 23.6663C11.1146 24.2057 10.2624 25.2265 10.1445 26.4093C9.25252 26.9859 7.45831 27.1766 6.0631 26.7379C4.1082 26.1202 3.35983 22.249 0.432302 22.8012C-0.201146 22.9198 -0.075256 23.3376 0.473298 23.6938C1.36519 24.2723 2.20519 24.9914 2.85267 26.5302C3.34996 27.7117 4.39588 29.8211 7.70272 29.8211C9.01547 29.8211 9.93496 29.6659 9.93496 29.6659C9.93496 29.6659 9.95996 32.6765 9.95996 33.8506C9.95996 35.2019 8.13636 35.5813 8.13636 36.2295C8.13636 36.4873 8.73994 36.5118 9.225 36.5118C10.1836 36.5118 12.1781 35.7133 12.1781 34.3089C12.1781 33.1929 12.1959 29.4425 12.1959 28.7857C12.1959 27.3507 12.9649 26.8938 12.9649 26.8938C12.9649 26.8938 13.0591 34.5543 12.7799 35.5813C12.4524 36.7891 11.8593 36.6175 11.8593 37.155C11.8593 37.9572 14.2571 37.3512 15.0524 35.5954C15.6677 34.224 15.3921 26.7117 15.3921 26.7117L16.0336 26.6977C16.0336 26.6977 16.0409 30.1383 16.0188 31.7101C15.9957 33.3381 15.8277 35.3963 16.7947 36.3676C17.4294 37.0065 19.3739 38.1275 19.3739 37.1031C19.3739 36.5094 18.0122 36.0187 18.0122 34.4102V27.0004C18.8394 27.0004 19.0104 29.4361 19.0104 29.4361L19.3086 33.9612C19.3086 33.9612 19.1106 35.6124 21.0924 36.3015C21.792 36.5465 23.2886 36.6132 23.3588 36.2019C23.4291 35.7895 21.5567 35.1798 21.5389 33.9018C21.5292 33.1234 21.5737 32.6678 21.5737 29.2821C21.5737 25.8983 21.1192 24.6466 19.5351 23.649C24.1287 23.1776 28.8999 21.1261 29.7594 15.7319Z" fill="black"/>
</svg>
