<svg width="82" height="86" viewBox="0 0 82 86" fill="none" xmlns="http://www.w3.org/2000/svg">
<path d="M45.0074 55.1677H37.2408C36.9862 55.1677 36.7796 55.3743 36.7796 55.6289V63.3954C36.7796 63.65 36.9862 63.8567 37.2408 63.8567H45.0079C45.2625 63.8567 45.4691 63.65 45.4691 63.3954V55.6289C45.4687 55.3738 45.2625 55.1677 45.0074 55.1677Z" fill="black"/>
<path d="M51.8915 25.6123C49.182 23.2154 45.4987 22 40.9444 22C36.6103 22 33.0529 23.2012 30.371 25.5708C27.6808 27.9472 26.2103 30.8809 26.0009 34.2907C25.9861 34.5338 26.1628 34.7469 26.4045 34.7768L33.5354 35.6611C33.5547 35.6634 33.5736 35.6648 33.5926 35.6648C33.8071 35.6648 33.9966 35.5153 34.0432 35.3008C34.5165 33.1098 35.3856 31.4658 36.6268 30.4145C37.8616 29.3683 39.4258 28.8378 41.2761 28.8378C43.195 28.8378 44.7329 29.3424 45.8473 30.3374C46.9617 31.3329 47.5038 32.4907 47.5038 33.8768C47.5038 34.8699 47.1998 35.7556 46.5743 36.584C46.2897 36.9512 45.3639 37.8682 42.5884 40.1248C40.2824 41.9994 38.7173 43.7232 37.9359 45.2472C37.1504 46.7801 36.7518 48.7478 36.7518 51.0963C36.7518 51.32 36.761 51.9284 36.7794 52.9566C36.784 53.208 36.9894 53.4096 37.2407 53.4096H44.2891C44.4128 53.4096 44.5312 53.3598 44.6179 53.2717C44.7047 53.1836 44.7522 53.0641 44.7503 52.9405C44.7148 50.885 44.8813 49.4574 45.2444 48.6972C45.6097 47.9324 46.5964 46.8784 48.1772 45.5637C51.4139 42.8726 53.4745 40.7941 54.4773 39.2092C55.4875 37.6118 56 35.8921 56 34.0982C55.9996 30.8787 54.6172 28.0238 51.8915 25.6123Z" fill="black"/>
</svg>
