<svg width="20" height="20" viewBox="0 0 20 20" fill="none" xmlns="http://www.w3.org/2000/svg">
<path fill-rule="evenodd" clip-rule="evenodd" d="M9.79167 3.33334C10.9368 3.33334 11.8651 4.25412 11.8651 5.38996V10.6454C12.9951 11.336 13.75 12.5749 13.75 13.9904C13.75 16.1588 11.9778 17.9167 9.79167 17.9167C7.60554 17.9167 5.83333 16.1588 5.83333 13.9904C5.83333 12.5749 6.58824 11.336 7.71825 10.6454V5.38996C7.71825 4.25412 8.64655 3.33334 9.79167 3.33334ZM8.66071 11.2164C7.55546 11.6602 6.77579 12.735 6.77579 13.9904C6.77579 15.6425 8.12604 16.9818 9.79167 16.9818C11.4573 16.9818 12.8075 15.6425 12.8075 13.9904C12.8075 12.735 12.0279 11.6602 10.9226 11.2164V5.38996C10.9226 4.77041 10.4163 4.26816 9.79167 4.26816C9.16706 4.26816 8.66071 4.77041 8.66071 5.38996V11.2164Z" fill="#231815"/>
<path fill-rule="evenodd" clip-rule="evenodd" d="M9.79167 5.41667C10.1368 5.41667 10.4167 5.69649 10.4167 6.04167V11.5371C11.4949 11.8146 12.2917 12.7934 12.2917 13.9583C12.2917 15.3391 11.1724 16.4583 9.79167 16.4583C8.41095 16.4583 7.29167 15.3391 7.29167 13.9583C7.29167 12.7934 8.0884 11.8146 9.16667 11.5371V6.04167C9.16667 5.69649 9.44649 5.41667 9.79167 5.41667Z" fill="#F25022"/>
</svg>
