<svg width="28" height="28" viewBox="0 0 28 28" fill="none" xmlns="http://www.w3.org/2000/svg">
<path fill-rule="evenodd" clip-rule="evenodd" d="M12.6856 15.9162H4.28279C4.13229 15.9162 3.97969 15.9309 3.83199 15.9106C3.38679 15.8483 3.01019 15.674 3.02209 15.1504C3.03329 14.6268 3.39869 14.449 3.86419 14.4476C5.53859 14.4413 7.21229 14.4413 8.88669 14.442C13.0062 14.4427 17.1271 14.4483 21.2466 14.4434C22.5584 14.4413 23.4999 13.5117 23.4838 12.2706C23.4691 11.0995 22.5241 10.1748 21.3453 10.1783C20.1602 10.1818 19.2173 11.1688 19.253 12.3721C19.2579 12.5219 19.2873 12.671 19.2978 12.8208C19.33 13.2779 19.1522 13.6034 18.6769 13.6727C18.1995 13.742 17.9181 13.4704 17.839 13.028C17.6962 12.2342 17.7599 11.4579 18.1316 10.7215C18.9205 9.16326 20.6033 8.39326 22.2952 8.82516C23.9227 9.24026 25.0091 10.7404 24.951 12.4911C24.8964 14.1571 23.6903 15.5725 21.9844 15.8266C21.1003 15.9589 20.1882 15.926 19.2887 15.9309C17.0879 15.9442 14.8864 15.9351 12.6856 15.9351V15.9162Z" fill="#121214"/>
<path fill-rule="evenodd" clip-rule="evenodd" d="M12.6118 17.7209C14.6418 17.7209 16.6725 17.7216 18.7025 17.7202C20.0647 17.7202 21.2064 18.6827 21.3177 19.9525C21.457 21.552 20.5981 22.5103 19.1771 22.7882C17.8352 23.05 16.606 22.1785 16.3316 20.8373C16.2483 20.4278 16.3946 20.1282 16.788 19.991C17.18 19.8545 17.4859 20.0022 17.691 20.3557C17.7379 20.4362 17.7624 20.5293 17.7981 20.6154C18.034 21.1803 18.454 21.4183 18.9902 21.2916C19.5705 21.1537 19.9086 20.7064 19.8526 20.1499C19.7987 19.6102 19.3668 19.2133 18.7718 19.2091C16.9672 19.1979 15.1626 19.2042 13.358 19.2042C11.0473 19.2049 8.73591 19.2056 6.42591 19.2056C6.31251 19.2056 6.19911 19.2126 6.08781 19.1993C5.65031 19.1482 5.33181 18.9459 5.29891 18.4713C5.27161 18.0716 5.63141 17.7482 6.13051 17.7419C7.36951 17.7279 8.60921 17.7356 9.84821 17.7349C10.7694 17.7342 11.6906 17.7342 12.6118 17.7342V17.7209Z" fill="#121214"/>
<path fill-rule="evenodd" clip-rule="evenodd" d="M9.93692 12.6629C8.71542 12.6629 7.49392 12.6678 6.27312 12.6601C5.67392 12.6566 5.30362 12.3787 5.29382 11.9566C5.28332 11.5051 5.66832 11.1964 6.28572 11.195C8.65382 11.1915 11.0219 11.1985 13.39 11.195C14.0319 11.1936 14.4883 10.8142 14.5422 10.2682C14.5968 9.71941 14.2461 9.22661 13.7036 9.09011C13.1772 8.95781 12.6991 9.24271 12.4485 9.87341C12.2707 10.32 11.9928 10.5601 11.5 10.4138C11.0415 10.2773 10.8896 9.86501 11.0723 9.30641C11.3782 8.36701 12.3134 7.64881 13.3067 7.58931C14.3672 7.52631 15.371 8.12901 15.7973 9.08661C16.5526 10.7834 15.3591 12.6447 13.4908 12.665C12.3064 12.6783 11.1213 12.6678 9.93692 12.6678V12.6629Z" fill="#121214"/>
</svg>
