<svg width="67" height="82" viewBox="0 0 67 82" fill="none" xmlns="http://www.w3.org/2000/svg">
<path fill-rule="evenodd" clip-rule="evenodd" d="M51.5348 11.1812C50.1898 11.1812 48.8798 11.3562 47.6348 11.6812C45.3048 5.06623 38.9998 0.326233 31.5873 0.326233C22.5073 0.326233 15.0848 7.44123 14.5998 16.4012C14.0423 16.3312 13.4798 16.2787 12.9048 16.2787C5.83726 16.2787 0.109756 22.0062 0.109756 29.0737C0.109756 36.1412 5.83726 41.8712 12.9048 41.8712H51.5348C60.0123 41.8712 66.8823 35.0012 66.8823 26.5262C66.8823 18.0512 60.0123 11.1812 51.5348 11.1812Z" fill="#D0D2D3"/>
<path fill-rule="evenodd" clip-rule="evenodd" d="M27.8566 47.9635C27.8566 47.9635 18.1641 52.741 16.5791 53.7385C14.9891 54.736 14.3841 55.1985 13.6041 56.351C11.1491 59.9585 12.0866 64.8735 15.6966 67.326C19.3066 69.7785 24.2191 68.8435 26.6716 65.236C27.4716 64.0585 27.6041 63.411 28.0116 61.421C28.4191 59.4335 29.1016 48.801 29.1016 48.801C29.1716 47.956 28.6141 47.5785 27.8566 47.9635Z" fill="#26A9E0"/>
<path fill-rule="evenodd" clip-rule="evenodd" d="M56.8984 60.2132L47.4109 60.4632L53.5634 48.8682C53.6634 48.6832 53.6409 48.4682 53.5059 48.2957C53.3709 48.1257 53.1409 48.0207 52.8884 48.0157L42.4859 47.8707C42.1784 47.8932 41.8709 48.0332 41.7659 48.2857L33.8584 67.2657C33.7834 67.4532 33.8234 67.6582 33.9634 67.8182C34.1034 67.9757 34.3284 68.0707 34.5659 68.0707H34.5734L43.9684 68.0157L40.1059 80.2658C40.0159 80.5532 40.1909 80.8532 40.5259 80.9733C40.6234 81.0107 40.7259 81.0282 40.8284 81.0282C41.0734 81.0282 41.3109 80.9307 41.4509 80.7582L57.5434 61.1607C57.6984 60.9732 57.7134 60.7282 57.5759 60.5257C57.4409 60.3257 57.1734 60.1932 56.8984 60.2132Z" fill="#FF9933"/>
</svg>
