<svg width="100" height="100" viewBox="0 0 100 100" fill="none" xmlns="http://www.w3.org/2000/svg">
<path fill-rule="evenodd" clip-rule="evenodd" d="M67.5373 27.9005C66.1898 27.9005 64.8823 28.0755 63.6348 28.4005C61.3048 21.7855 54.9998 17.0455 47.5898 17.0455C38.5073 17.0455 31.0873 24.1605 30.6023 33.1205C30.0448 33.048 29.4798 32.998 28.9048 32.998C21.8398 32.998 16.1098 38.7255 16.1098 45.793C16.1098 52.8605 21.8398 58.588 28.9048 58.588H67.5373C76.0123 58.588 82.8823 51.7205 82.8823 43.2455C82.8823 34.768 76.0123 27.9005 67.5373 27.9005Z" fill="#D0D2D3"/>
<path fill-rule="evenodd" clip-rule="evenodd" d="M67.7033 64.7975C67.7033 64.7975 58.0083 69.575 56.4233 70.5725C54.8333 71.57 54.2308 72.0325 53.4483 73.1825C50.9933 76.7925 51.9308 81.7075 55.5408 84.16C59.1483 86.615 64.0633 85.675 66.5158 82.0675C67.3183 80.8925 67.4483 80.245 67.8583 78.255C68.2658 76.2675 68.9433 65.635 68.9433 65.635C69.0158 64.79 68.4583 64.4125 67.7033 64.7975Z" fill="#26A9E0"/>
<path fill-rule="evenodd" clip-rule="evenodd" d="M44.4122 75.536L39.2647 73.521L43.2797 69.721C43.6322 69.391 43.6422 68.831 43.3122 68.4835L41.6922 66.771C41.3597 66.421 40.8047 66.4085 40.4547 66.7385L36.8072 70.1935L35.8447 65.261C35.7522 64.786 35.2897 64.4735 34.8147 64.566L32.5022 65.0185C32.0297 65.111 31.7172 65.5735 31.8097 66.046L32.7722 70.9785L28.0922 69.146C27.6422 68.971 27.1322 69.1935 26.9572 69.6435L26.0972 71.8385C25.9197 72.286 26.1422 72.796 26.5922 72.9735L31.7397 74.9885L27.7247 78.7885C27.3772 79.121 27.3622 79.6785 27.6947 80.026L29.3147 81.7385C29.6447 82.091 30.1997 82.1035 30.5522 81.7735L34.1997 78.3185L35.1622 83.251C35.2547 83.7235 35.7172 84.0335 36.1897 83.9435L38.5047 83.4935C38.9772 83.401 39.2872 82.936 39.1972 82.4635L38.2347 77.531L42.9122 79.3635C43.3622 79.5385 43.8747 79.316 44.0472 78.8685L44.9097 76.671C45.0847 76.221 44.8622 75.711 44.4122 75.536Z" fill="#26A9E0"/>
</svg>
