<svg width="100" height="100" viewBox="0 0 100 100" fill="none" xmlns="http://www.w3.org/2000/svg">
<path fill-rule="evenodd" clip-rule="evenodd" d="M38.1279 63.119C38.1279 63.119 33.4904 65.404 32.7304 65.8815C31.9679 66.3615 31.6804 66.5815 31.3054 67.1315C30.1329 68.859 30.5804 71.2115 32.3079 72.384C34.0354 73.559 36.3879 73.1115 37.5579 71.384C37.9429 70.8215 38.0054 70.5115 38.2004 69.559C38.3954 68.609 38.7204 63.5215 38.7204 63.5215C38.7579 63.1165 38.4904 62.934 38.1279 63.119Z" fill="#26A9E0"/>
<path fill-rule="evenodd" clip-rule="evenodd" d="M52.9327 75.6165C52.9327 75.6165 48.2952 77.9015 47.5377 78.379C46.7752 78.8565 46.4877 79.079 46.1127 79.629C44.9402 81.3565 45.3852 83.709 47.1127 84.8815C48.8402 86.0565 51.1927 85.609 52.3652 83.8815C52.7502 83.319 52.8127 83.009 53.0077 82.0565C53.2027 81.1065 53.5277 76.0165 53.5277 76.0165C53.5627 75.6115 53.2952 75.4315 52.9327 75.6165Z" fill="#26A9E0"/>
<path fill-rule="evenodd" clip-rule="evenodd" d="M68.0158 63.119C68.0158 63.119 63.3783 65.404 62.6183 65.8815C61.8558 66.3615 61.5683 66.5815 61.1933 67.1315C60.0208 68.859 60.4683 71.2115 62.1958 72.384C63.9233 73.559 66.2758 73.1115 67.4483 71.384C67.8333 70.8215 67.8958 70.5115 68.0883 69.559C68.2833 68.609 68.6083 63.5215 68.6083 63.5215C68.6458 63.1165 68.3783 62.934 68.0158 63.119Z" fill="#26A9E0"/>
<path fill-rule="evenodd" clip-rule="evenodd" d="M38.1279 75.6165C38.1279 75.6165 33.4904 77.9015 32.7304 78.379C31.9679 78.8565 31.6804 79.0765 31.3054 79.629C30.1329 81.3565 30.5804 83.709 32.3079 84.8815C34.0354 86.0565 36.3879 85.6065 37.5579 83.8815C37.9429 83.319 38.0054 83.009 38.2004 82.054C38.3954 81.104 38.7204 76.0165 38.7204 76.0165C38.7579 75.6115 38.4904 75.4315 38.1279 75.6165Z" fill="#26A9E0"/>
<path fill-rule="evenodd" clip-rule="evenodd" d="M68.0158 75.6165C68.0158 75.6165 63.3783 77.9015 62.6183 78.379C61.8558 78.8565 61.5683 79.0765 61.1933 79.629C60.0208 81.3565 60.4683 83.709 62.1958 84.8815C63.9233 86.0565 66.2758 85.6065 67.4483 83.8815C67.8333 83.319 67.8958 83.009 68.0883 82.054C68.2833 81.104 68.6083 76.0165 68.6083 76.0165C68.6458 75.6115 68.3783 75.4315 68.0158 75.6165Z" fill="#26A9E0"/>
<path fill-rule="evenodd" clip-rule="evenodd" d="M82.2832 63.119C82.2832 63.119 77.6457 65.404 76.8857 65.8815C76.1232 66.3615 75.8357 66.5815 75.4607 67.1315C74.2882 68.859 74.7357 71.2115 76.4632 72.384C78.1907 73.559 80.5432 73.1115 81.7157 71.384C82.1007 70.8215 82.1632 70.5115 82.3557 69.559C82.5507 68.609 82.8757 63.5215 82.8757 63.5215C82.9132 63.1165 82.6457 62.934 82.2832 63.119Z" fill="#26A9E0"/>
<path fill-rule="evenodd" clip-rule="evenodd" d="M23.5845 63.119C23.5845 63.119 18.947 65.404 18.187 65.8815C17.427 66.3615 17.137 66.5815 16.762 67.1315C15.5895 68.859 16.037 71.2115 17.767 72.384C19.492 73.559 21.8445 73.1115 23.017 71.384C23.402 70.8215 23.4645 70.5115 23.6595 69.559C23.8545 68.609 24.1795 63.5215 24.1795 63.5215C24.2145 63.1165 23.947 62.934 23.5845 63.119Z" fill="#26A9E0"/>
<path fill-rule="evenodd" clip-rule="evenodd" d="M69.1706 26.354C67.8281 26.354 66.5231 26.529 65.2806 26.854C62.9556 20.2565 56.6706 15.5265 49.2756 15.5265C40.2181 15.5265 32.8181 22.624 32.3356 31.5615C31.7781 31.489 31.2156 31.4365 30.6431 31.4365C23.5956 31.4365 17.8806 37.1515 17.8806 44.2015C17.8806 51.249 23.5956 56.9615 30.6431 56.9615H33.1856L43.5231 32.144C43.9456 31.144 44.9656 30.469 46.1956 30.3865L61.8556 30.599C62.7881 30.6115 63.6681 31.034 64.2156 31.729C64.8731 32.564 64.9781 33.674 64.4756 34.614L56.8056 49.0715L67.7256 48.784C68.7781 48.734 69.7856 49.2215 70.3631 50.074C71.0231 51.0415 70.9681 52.3215 70.2106 53.244L67.1556 56.9615H69.1706C77.6231 56.9615 84.4756 50.1115 84.4756 41.659C84.4756 33.204 77.6231 26.354 69.1706 26.354Z" fill="#D0D2D3"/>
<path fill-rule="evenodd" clip-rule="evenodd" d="M66.2678 50.94L53.0778 51.295L61.6328 34.815C61.7678 34.55 61.7378 34.245 61.5503 34.0025C61.3628 33.7575 61.0428 33.61 60.6953 33.6025L46.2328 33.3975C45.8053 33.4275 45.3778 33.6275 45.2328 33.985L34.2378 60.965C34.1328 61.23 34.1853 61.5225 34.3803 61.7525C34.5753 61.9775 34.8878 62.11 35.2228 62.11H35.2278L48.2953 62.0325L42.9228 79.4425C42.7953 79.8525 43.0428 80.2775 43.5053 80.4525C43.6403 80.5025 43.7853 80.5275 43.9278 80.5275C44.2678 80.5275 44.5953 80.39 44.7903 80.1425L67.1628 52.29C67.3803 52.02 67.3978 51.67 67.2078 51.3875C67.0203 51.1 66.6503 50.915 66.2678 50.94Z" fill="#FF9933"/>
</svg>
